<?xml version="1.0" standalone="no"?>
<!DOCTYPE svg PUBLIC "-//W3C//DTD SVG 20010904//EN"
 "http://www.w3.org/TR/2001/REC-SVG-20010904/DTD/svg10.dtd">
<svg version="1.0" xmlns="http://www.w3.org/2000/svg"
 width="88.000000pt" height="128.000000pt" viewBox="0 0 88.000000 128.000000"
 preserveAspectRatio="xMidYMid meet">

<g transform="translate(0.000000,128.000000) scale(0.100000,-0.100000)"
fill="#000000" stroke="none">
<path d="M274 1267 c-12 -6 -45 -25 -73 -40 -29 -15 -54 -34 -57 -42 -3 -7
-24 -26 -46 -41 -24 -17 -50 -49 -66 -79 -23 -45 -26 -60 -24 -151 1 -86 6
-115 36 -200 l35 -99 -26 -21 c-23 -18 -25 -25 -19 -60 4 -21 14 -46 21 -54 7
-8 21 -33 30 -56 17 -45 44 -64 101 -73 30 -5 38 -12 48 -41 7 -19 25 -68 40
-109 14 -41 26 -89 26 -108 0 -18 4 -33 10 -33 5 0 16 -13 25 -30 l16 -30 258
0 c227 0 260 2 265 16 3 9 6 55 6 103 0 64 -5 97 -17 122 -15 28 -18 56 -15
169 2 106 6 136 17 143 12 6 15 31 15 116 0 96 -2 111 -22 136 -18 23 -27 26
-55 22 -32 -6 -33 -4 -33 26 0 30 -24 104 -81 254 -29 75 -85 146 -109 138 -9
-3 -43 4 -76 15 -68 22 -197 27 -230 7z m366 -239 c0 -13 -32 -6 -37 9 -3 7 3
9 16 6 12 -3 21 -10 21 -15z m-52 -172 c19 -12 -14 -46 -45 -46 -14 0 -23 -6
-23 -15 0 -9 -8 -18 -17 -21 -10 -3 -28 -11 -40 -17 -17 -8 -29 -7 -49 3 -20
11 -27 12 -33 1 -5 -7 -21 -11 -37 -9 -24 2 -29 8 -32 35 -4 37 12 49 79 59
24 4 52 12 61 19 18 12 112 6 136 -9z m129 -212 c-3 -3 -12 -4 -19 -1 -8 3 -5
6 6 6 11 1 17 -2 13 -5z m2 -36 c0 -13 -3 -17 -6 -10 -2 6 -11 12 -19 12 -8 0
-14 5 -14 10 0 6 9 10 20 10 14 0 20 -6 19 -22z m38 16 c-3 -3 -12 -4 -19 -1
-8 3 -5 6 6 6 11 1 17 -2 13 -5z m-192 -67 c25 -19 12 -35 -24 -29 -26 4 -29
6 -18 23 14 23 18 23 42 6z m-155 -1 c0 -3 -4 -8 -10 -11 -5 -3 -10 -1 -10 4
0 6 5 11 10 11 6 0 10 -2 10 -4z m-32 -31 c2 -1 -6 -18 -18 -37 -16 -28 -25
-34 -45 -31 -30 6 -59 38 -52 57 8 20 93 28 115 11z m320 -127 c-2 -12 -23
-36 -48 -54 -39 -28 -53 -33 -107 -33 -74 -1 -93 5 -93 30 0 13 7 19 23 19 22
0 98 21 142 40 63 27 87 26 83 -2z"/>
</g>
</svg>
